<svg height="48pt" viewBox="0 0 48 48" width="48pt" xmlns="http://www.w3.org/2000/svg" xmlns:xlink="http://www.w3.org/1999/xlink"><linearGradient id="a" gradientTransform="matrix(43.5 0 0 44 5 2)" gradientUnits="userSpaceOnUse" x1=".220786" x2=".902249" y1=".04724" y2=".906146"><stop offset=".02608695652" stop-color="#ea8bf3"/><stop offset=".98695652174" stop-color="#826ef5"/></linearGradient><path d="m42.94696 41.159588c-.002871 2.74159-2.191285 4.840412-4.70296 4.840412h-28.488c-2.625 0-4.756-2.131-4.756-4.756v-19.244c0-1.104.811-2 1.81-2 .998 0 1.809.896 1.809 2v17.146c0 1.575 1.279 2.854 2.854 2.854h25.054c1.575 0 2.854-1.279 2.854-2.854v-16.146-1-13.146c0-1.575-1.279-2.854-2.854-2.854h-25.054c-1.575 0-2.854 1.279-2.854 2.854v5.146c0 1.104-.811 2-1.809 2-.999 0-1.81-.896-1.81-2v-7.244c0-2.625 2.131-4.756 4.756-4.756h28.488c2.511675 0 4.741663 2.1354107 4.73891 4.7685028zm-30.01496-31.159588h22.366c.797 0 1.444.647 1.444 1.444v1.112c0 .797-.647 1.444-1.444 1.444h-22.366c-.797 0-1.444-.647-1.444-1.444v-1.112c0-.797.647-1.444 1.444-1.444zm0 16h15.06722c.797 0 1.444.647 1.444 1.444v1.112c0 .797-.647 1.444-1.444 1.444h-15.06722c-.797 0-1.444-.647-1.444-1.444v-1.112c0-.797.647-1.444 1.444-1.444zm0 8h22.366c.797 0 1.444.647 1.444 1.444v1.112c0 .797-.647 1.444-1.444 1.444h-22.366c-.797 0-1.444-.647-1.444-1.444v-1.112c0-.797.647-1.444 1.444-1.444zm0-16h18.626723c.797 0 1.444.647 1.444 1.444v1.112c0 .797-.647 1.444-1.444 1.444h-18.626723c-.797 0-1.444-.647-1.444-1.444v-1.112c0-.797.647-1.444 1.444-1.444z" fill="url(#a)" fill-rule="evenodd"/></svg>